<svg width="71" height="42" viewBox="0 0 71 42" fill="none" xmlns="http://www.w3.org/2000/svg">
<path d="M8.35559 25.93L9.48661 18.0128L17.1775 20.2749L24.8684 36.7877L18.7609 16.4294L21.2492 7.15508L28.2615 13.2626L31.2021 34.7519V8.73851L35.0476 1.5L40.7027 8.73851V34.7519L44.7743 13.2626L51.108 7.15508L53.8225 16.4294L47.9412 36.7877L57.4417 20.2749L62.6444 18.0128V25.93L53.8225 40.407L47.9412 36.7877L53.8225 16.4294L51.108 7.15508L44.7743 13.2626L40.7027 34.7519H31.2021L28.2615 13.2626L21.2492 7.15508L18.7609 16.4294L24.8684 36.7877L18.7609 40.407L8.35559 25.93Z" fill="#FF099C" fill-opacity="0.47"/>
<path d="M8.35559 25.93L9.48661 18.0128L17.1775 20.2749L24.8684 36.7877L18.7609 16.4294L21.2492 7.15508L28.2615 13.2626L31.2021 34.7519V8.73851L35.0476 1.5L40.7027 8.73851V34.7519L44.7743 13.2626L51.108 7.15508L53.8225 16.4294L47.9412 36.7877L57.4417 20.2749L62.6444 18.0128V25.93L53.8225 40.407L47.9412 36.7877L53.8225 16.4294L51.108 7.15508L44.7743 13.2626L40.7027 34.7519H31.2021L28.2615 13.2626L21.2492 7.15508L18.7609 16.4294L24.8684 36.7877L18.7609 40.407L8.35559 25.93Z" fill="#310047" fill-opacity="0.47"/>
<path d="M28.2615 13.2626L24.1898 19.1439L28.2615 35.4305L31.2021 34.7519L28.2615 13.2626Z" fill="#FF099C" fill-opacity="0.47"/>
<path d="M28.2615 13.2626L24.1898 19.1439L28.2615 35.4305L31.2021 34.7519L28.2615 13.2626Z" fill="#310047" fill-opacity="0.47"/>
<path d="M44.7743 13.2626L40.7027 34.7519L47.9412 36.7877L53.8225 16.4294L51.108 7.15508L44.7743 13.2626Z" fill="#FF099C" fill-opacity="0.47"/>
<path d="M44.7743 13.2626L40.7027 34.7519L47.9412 36.7877L53.8225 16.4294L51.108 7.15508L44.7743 13.2626Z" fill="#310047" fill-opacity="0.47"/>
<path d="M24.1898 19.1439L28.2615 13.2626L21.2492 7.15508L18.7609 16.4294L24.8684 36.5615L28.2615 35.4305L24.1898 19.1439Z" fill="#FF099C" fill-opacity="0.47"/>
<path d="M24.1898 19.1439L28.2615 13.2626L21.2492 7.15508L18.7609 16.4294L24.8684 36.5615L28.2615 35.4305L24.1898 19.1439Z" fill="#310047" fill-opacity="0.47"/>
<path d="M18.9872 16.4294L24.1898 19.1439M24.1898 19.1439L28.2615 13.2626M24.1898 19.1439L28.2615 35.4305M28.2615 13.2626L21.2492 7.15508L18.7609 16.4294M28.2615 13.2626L31.2021 34.7519M28.2615 35.4305L24.8684 36.5615L18.7609 16.4294M28.2615 35.4305L31.2021 34.7519M31.2021 34.7519V8.73851L35.0476 1.5L40.7027 8.73851V34.7519M31.2021 34.7519H40.7027M8.35559 25.93L9.48661 18.0128L17.1775 20.2749M8.35559 25.93L18.7609 40.407L24.8684 36.7877M8.35559 25.93H14.2369L17.1775 20.2749M17.1775 20.2749L24.8684 36.7877M24.8684 36.7877L18.7609 16.4294M40.7027 34.7519L44.7743 13.2626L51.108 7.15508L53.8225 16.4294L47.9412 36.7877M40.7027 34.7519L47.9412 36.7877M47.9412 36.7877L57.4417 20.2749L62.6444 18.0128V25.93L53.8225 40.407L47.9412 36.7877Z" stroke="black"/>
<path d="M14.2369 25.93L21.7016 38.5974" stroke="black"/>
<path d="M31.4283 9.19092L35.9524 12.3578M35.9524 12.3578L40.4765 9.19092M35.9524 12.3578V34.7519" stroke="black"/>
<path d="M44.7744 13.2626L48.2544 16.2632M48.2544 16.2632H53.8225M48.2544 16.2632L44.7744 35.8829" stroke="black"/>
<path d="M57.4417 20.5011L58.3466 25.0251M58.3466 25.0251L62.4182 25.9299M58.3466 25.0251L50.4294 38.1449" stroke="black"/>
<path d="M35.0476 5.57168L34.1428 7.38131L35.0476 8.96473H36.4048L37.3096 7.38131L36.4048 5.57168H35.0476Z" fill="#FF099C" fill-opacity="0.47"/>
<path d="M35.0476 5.57168L34.1428 7.38131L35.0476 8.96473H36.4048L37.3096 7.38131L36.4048 5.57168H35.0476Z" fill="#310047" fill-opacity="0.47"/>
<path d="M34.1428 7.38131L35.0476 5.57168M34.1428 7.38131L35.0476 8.96473M34.1428 7.38131L31.4283 8.96473M35.0476 5.57168H36.4048M35.0476 5.57168L33.4642 4.66687M36.4048 5.57168L37.3096 7.38131M36.4048 5.57168L37.3096 4.66687M37.3096 7.38131L36.4048 8.96473M37.3096 7.38131L40.4765 8.96473M36.4048 8.96473H35.0476M36.4048 8.96473L37.9882 10.5482M35.0476 8.96473L33.4642 10.5482" stroke="black"/>
<path d="M33.4642 34.2995L31.4283 9.41711" stroke="black"/>
<path d="M33.4642 34.5257L35.9524 12.584" stroke="black"/>
<path d="M38.6668 34.5257L40.4765 9.41711" stroke="black"/>
<path d="M36.1786 12.584L38.4407 34.5257" stroke="black"/>
<path d="M58.3465 25.0251L49.5246 37.4663" stroke="black"/>
<path d="M62.4182 26.3824L52.239 39.0497L58.5727 25.2513" stroke="black"/>
<path d="M18.9872 16.4294L26.2257 35.8829L23.9636 19.1439L29.6187 34.7519L28.2615 13.4888" stroke="black"/>
<path d="M8.58179 26.1562L20.1182 39.5022L14.0107 26.1562L23.285 37.4663L16.9513 20.5011" stroke="black"/>
<path d="M49.2984 11.4529L48.1674 12.3578V13.9412L49.977 14.846L51.3342 13.9412V12.3578L49.2984 11.4529Z" fill="#FF099C" fill-opacity="0.47"/>
<path d="M49.2984 11.4529L48.1674 12.3578V13.9412L49.977 14.846L51.3342 13.9412V12.3578L49.2984 11.4529Z" fill="#310047" fill-opacity="0.47"/>
<path d="M49.2984 11.4529L48.1674 12.3578V13.9412L49.977 14.846L51.3342 13.9412V12.3578L49.2984 11.4529Z" stroke="black"/>
<path d="M50.6556 16.2032L49.977 15.0722L51.3342 14.1674M51.3342 14.1674L53.8225 16.2032M51.3342 14.1674V12.584M51.3342 12.584L52.2391 11.9054M51.3342 12.584L49.2984 11.453M49.2984 11.453L48.6198 9.86954M49.2984 11.453L48.1674 12.3578M48.1674 12.3578L45.2267 13.2626M48.1674 12.3578V14.1674L47.0364 15.0722" stroke="black"/>
<path d="M21.7016 12.584L21.2492 14.6198L22.8326 15.5246L24.6423 14.6198L25.5471 12.584L23.7374 11.9054L21.7016 12.584Z" fill="#FF099C" fill-opacity="0.47"/>
<path d="M21.7016 12.584L21.2492 14.6198L22.8326 15.5246L24.6423 14.6198L25.5471 12.584L23.7374 11.9054L21.7016 12.584Z" fill="#310047" fill-opacity="0.47"/>
<path d="M21.7016 12.584L21.2492 14.6198L22.8326 15.5246L24.6423 14.6198L25.5471 12.584L23.7374 11.9054L21.7016 12.584Z" stroke="black"/>
<path d="M11.07 21.1797V22.9893L11.7486 23.8941L13.3321 23.4417L14.4631 21.8583L13.7845 20.5011H12.2011L11.07 21.1797Z" fill="#FF099C" fill-opacity="0.47"/>
<path d="M11.07 21.1797V22.9893L11.7486 23.8941L13.3321 23.4417L14.4631 21.8583L13.7845 20.5011H12.2011L11.07 21.1797Z" fill="#310047" fill-opacity="0.47"/>
<path d="M11.07 21.1797V22.9893L11.7486 23.8941L13.3321 23.4417L14.4631 21.8583L13.7845 20.5011H12.2011L11.07 21.1797Z" stroke="black"/>
<path d="M60.3824 20.9535L59.0251 21.6321V23.4417L60.3824 24.1203L61.7396 23.4417V21.6321L60.3824 20.9535Z" fill="#FF099C" fill-opacity="0.47"/>
<path d="M60.3824 20.9535L59.0251 21.6321V23.4417L60.3824 24.1203L61.7396 23.4417V21.6321L60.3824 20.9535Z" fill="#310047" fill-opacity="0.47"/>
<path d="M60.3824 20.9535L59.0251 21.6321V23.4417L60.3824 24.1203L61.7396 23.4417V21.6321L60.3824 20.9535Z" stroke="black"/>
<path d="M20.3444 11.9053L21.4754 12.3578L23.9636 11.9053M23.9636 11.9053V9.64331M23.9636 11.9053L25.547 12.3578M25.547 12.3578L26.4519 11.9053M25.547 12.3578L24.6422 14.3936M24.6422 14.3936L26.4519 15.5246M24.6422 14.3936L22.8326 15.5246M22.8326 15.5246L23.9636 18.6914M22.8326 15.5246L21.4754 14.3936L19.2133 16.4294" stroke="black"/>
<path d="M9.2604 20.5011L11.07 21.1797L12.201 20.5011M12.201 20.5011V18.9177M12.201 20.5011H13.7845M13.7845 20.5011L14.4631 19.5963M13.7845 20.5011L14.4631 21.8583M14.4631 21.8583H16.2727M14.4631 21.8583L13.7845 23.4417M13.7845 23.4417L14.4631 25.7038M13.7845 23.4417L12.201 24.1203M12.201 24.1203L11.5224 25.93M12.201 24.1203L11.07 23.4417L8.35559 25.7038" stroke="black"/>
<path d="M60.3823 19.1439V21.1797L61.9658 21.8583M61.9658 21.8583L62.6444 21.1797M61.9658 21.8583V23.4417M61.9658 23.4417L62.6444 25.7038M61.9658 23.4417L60.3823 24.1203M60.3823 24.1203V25.2514M60.3823 24.1203L59.2513 23.4417M59.2513 23.4417L58.5727 24.1203M59.2513 23.4417V21.8583L57.6679 20.2749" stroke="black"/>
<path d="M42.7385 35.2043L45.0005 13.715" stroke="black"/>
<path d="M48.6198 16.2032L42.9647 35.2043" stroke="black"/>
<path d="M53.5963 16.4294L46.3578 36.1091" stroke="black"/>
<path d="M48.6198 16.4294L46.3578 36.1091" stroke="black"/>
<path d="M57.2155 20.5011L49.2984 37.4663" stroke="black"/>
</svg>
